<?xml version="1.0" encoding="utf-8"?>
<!-- Generator: Adobe Illustrator 19.1.0, SVG Export Plug-In . SVG Version: 6.00 Build 0)  -->
<svg version="1.1" id="Layer_1" xmlns="http://www.w3.org/2000/svg" xmlns:xlink="http://www.w3.org/1999/xlink" x="0px" y="0px"
	 viewBox="0 0 122 45" style="enable-background:new 0 0 122 45;" xml:space="preserve">
<style type="text/css">
	.st0{fill:#F7931E;}
	.st1{stroke:#020202;stroke-miterlimit:10;}
</style>
<g>
	<path d="M3.7,35.4V7.7h0.6l18.1,21.3V7.7H25v27.7h-0.6l-17.9-21v21H3.7z"/>
	<path d="M40.7,14.4c3.1,0,5.7,1.1,7.7,3.4c1.8,2.1,2.8,4.6,2.8,7.4c0,2.9-1,5.4-2.9,7.5c-2,2.1-4.5,3.2-7.5,3.2
		c-3.1,0-5.6-1.1-7.5-3.2s-2.9-4.6-2.9-7.5c0-2.8,0.9-5.3,2.8-7.4C35,15.5,37.6,14.4,40.7,14.4z M40.7,17c-2.1,0-4,0.8-5.5,2.4
		s-2.3,3.6-2.3,5.9c0,1.5,0.4,2.9,1.1,4.1c0.7,1.3,1.7,2.3,2.8,3c1.2,0.7,2.5,1,3.9,1c1.4,0,2.7-0.3,3.9-1c1.2-0.7,2.1-1.7,2.9-3
		c0.7-1.3,1.1-2.7,1.1-4.1c0-2.3-0.8-4.3-2.3-5.9S42.8,17,40.7,17z"/>
	<path d="M58.2,7.3h2.6v7.6h4.1v2.3h-4.1v18.2h-2.6V17.2h-3.5v-2.3h3.5V7.3z"/>
	<path class="st0" d="M69.6,6.5c0.6,0,1.1,0.2,1.5,0.6c0.4,0.4,0.6,0.9,0.6,1.5c0,0.6-0.2,1.1-0.6,1.5s-0.9,0.6-1.5,0.6
		c-0.6,0-1.1-0.2-1.5-0.6s-0.6-0.9-0.6-1.5c0-0.6,0.2-1.1,0.6-1.5C68.5,6.7,69,6.5,69.6,6.5z M68.3,14.9h2.6v20.5h-2.6V14.9z"/>
	<path class="st0" d="M95.8,19.2l-2,1.3c-1.8-2.4-4.2-3.6-7.2-3.6c-2.4,0-4.5,0.8-6.1,2.4c-1.6,1.6-2.4,3.6-2.4,5.9
		c0,1.5,0.4,2.9,1.1,4.2s1.8,2.3,3.1,3.1c1.3,0.7,2.7,1.1,4.4,1.1c2.9,0,5.4-1.2,7.2-3.6l2,1.4c-1,1.5-2.2,2.6-3.9,3.4
		c-1.6,0.8-3.5,1.2-5.5,1.2c-3.2,0-5.8-1-7.9-3.1c-2.1-2.1-3.1-4.6-3.1-7.5c0-2,0.5-3.8,1.5-5.5c1-1.7,2.3-3,4-4s3.6-1.4,5.7-1.4
		c1.3,0,2.6,0.2,3.8,0.6c1.2,0.4,2.3,1,3.1,1.6C94.4,17.3,95.1,18.1,95.8,19.2z"/>
	<path d="M117.6,28.6l2.2,1.2c-0.7,1.4-1.5,2.6-2.5,3.5c-0.9,0.9-2,1.5-3.2,2c-1.2,0.5-2.5,0.7-4,0.7c-3.3,0-5.8-1.1-7.7-3.3
		s-2.8-4.7-2.8-7.4c0-2.6,0.8-4.9,2.3-7c2-2.6,4.6-3.9,8-3.9c3.4,0,6.2,1.3,8.2,4c1.5,1.9,2.2,4.2,2.2,7h-18.1
		c0,2.4,0.8,4.3,2.2,5.9s3.2,2.3,5.3,2.3c1,0,2-0.2,3-0.5s1.8-0.8,2.5-1.4C116.1,30.9,116.8,30,117.6,28.6z M117.6,23.1
		c-0.3-1.4-0.8-2.5-1.5-3.4c-0.7-0.8-1.5-1.5-2.6-2c-1.1-0.5-2.2-0.8-3.4-0.8c-2,0-3.7,0.6-5.1,1.9c-1,0.9-1.8,2.4-2.3,4.2H117.6z"
		/>
</g>
<path class="st1" d="M94.6,47.3"/>
<path class="st1" d="M95,46.6"/>
</svg>
