<?xml version="1.0" encoding="utf-8"?>
<!-- Generator: Adobe Illustrator 19.1.0, SVG Export Plug-In . SVG Version: 6.00 Build 0)  -->
<svg version="1.1" id="Layer_1" xmlns="http://www.w3.org/2000/svg" xmlns:xlink="http://www.w3.org/1999/xlink" x="0px" y="0px"
	 viewBox="0 0 84.9 47.7" style="enable-background:new 0 0 84.9 47.7;" xml:space="preserve">
<style type="text/css">
	.st0{fill:#F7931E;}
	.st1{stroke:#020202;stroke-miterlimit:10;}
</style>
<g>
	<path class="st0" d="M61,27.2l-2,1.3c-1.8-2.4-4.2-3.6-7.2-3.6c-2.4,0-4.5,0.8-6.1,2.4c-1.6,1.6-2.4,3.6-2.4,5.9
		c0,1.5,0.4,2.9,1.1,4.2s1.8,2.3,3.1,3.1c1.3,0.7,2.7,1.1,4.4,1.1c2.9,0,5.4-1.2,7.2-3.6l2,1.4c-1,1.5-2.2,2.6-3.9,3.4
		c-1.6,0.8-3.5,1.2-5.5,1.2c-3.2,0-5.8-1-7.9-3.1c-2.1-2.1-3.1-4.6-3.1-7.5c0-2,0.5-3.8,1.5-5.5c1-1.7,2.3-3,4-4s3.6-1.4,5.7-1.4
		c1.3,0,2.6,0.2,3.8,0.6c1.2,0.4,2.3,1,3.1,1.6C59.6,25.4,60.4,26.2,61,27.2z"/>
	<path class="st0" d="M3.2,30.9V3.2h0.6l18.1,21.3V3.2h2.7v27.7h-0.6L6,9.9v21H3.2z"/>
	<path d="M37.1,3.7c3.1,0,5.7,1.1,7.7,3.4c1.8,2.1,2.8,4.6,2.8,7.4c0,2.9-1,5.4-2.9,7.5c-2,2.1-4.5,3.2-7.5,3.2
		c-3.1,0-5.6-1.1-7.5-3.2s-2.9-4.6-2.9-7.5c0-2.8,0.9-5.3,2.8-7.4C31.5,4.9,34,3.7,37.1,3.7z M37.1,6.3c-2.1,0-4,0.8-5.5,2.4
		s-2.3,3.6-2.3,5.9c0,1.5,0.4,2.9,1.1,4.1c0.7,1.3,1.7,2.3,2.8,3c1.2,0.7,2.5,1,3.9,1c1.4,0,2.7-0.3,3.9-1c1.2-0.7,2.1-1.7,2.9-3
		c0.7-1.3,1.1-2.7,1.1-4.1c0-2.3-0.8-4.3-2.3-5.9S39.3,6.3,37.1,6.3z"/>
	<path d="M52.3,3.2h2.6v7.6H59v2.3h-4.1v18.2h-2.6V13.1h-3.5v-2.3h3.5V3.2z"/>
	<path d="M37.1,14.5c0.6,0,1.1,0.2,1.5,0.6c0.4,0.4,0.6,0.9,0.6,1.5c0,0.6-0.2,1.1-0.6,1.5s-0.9,0.6-1.5,0.6c-0.6,0-1.1-0.2-1.5-0.6
		S35,17.3,35,16.7c0-0.6,0.2-1.1,0.6-1.5C36,14.7,36.5,14.5,37.1,14.5z M35.8,23h2.6v20.5h-2.6V23z"/>
	<path d="M78.8,37.2l2.2,1.2c-0.7,1.4-1.5,2.6-2.5,3.5c-0.9,0.9-2,1.5-3.2,2c-1.2,0.5-2.5,0.7-4,0.7c-3.3,0-5.8-1.1-7.7-3.3
		S61,36.6,61,33.8c0-2.6,0.8-4.9,2.3-7c2-2.6,4.6-3.9,8-3.9c3.4,0,6.2,1.3,8.2,4c1.5,1.9,2.2,4.2,2.2,7H63.6c0,2.4,0.8,4.3,2.2,5.9
		s3.2,2.3,5.3,2.3c1,0,2-0.2,3-0.5s1.8-0.8,2.5-1.4C77.3,39.5,78,38.5,78.8,37.2z M78.8,31.7c-0.3-1.4-0.8-2.5-1.5-3.4
		c-0.7-0.9-1.6-1.6-2.8-2.1c-1-0.4-2-0.7-3.1-0.7c-2.1,0-3.8,0.6-5.3,1.9c-1,0.9-1.8,2.4-2.3,4.2H78.8z"/>
</g>
<path class="st1" d="M87.6,50"/>
<path class="st1" d="M88,49.3"/>
</svg>
