<?xml version="1.0" encoding="utf-8"?>
<!-- Generator: Adobe Illustrator 19.1.0, SVG Export Plug-In . SVG Version: 6.00 Build 0)  -->
<svg version="1.1" id="Layer_1" xmlns="http://www.w3.org/2000/svg" xmlns:xlink="http://www.w3.org/1999/xlink" x="0px" y="0px"
	 viewBox="0 0 116.7 29.5" style="enable-background:new 0 0 116.7 29.5;" xml:space="preserve">
<style type="text/css">
	.st0{display:none;}
	.st1{display:inline;fill:#FFFFFF;}
	.st2{display:inline;}
	.st3{fill:none;stroke:#000000;stroke-width:2;stroke-miterlimit:10;}
	.st4{display:none;fill:none;stroke:#000000;stroke-width:2;stroke-miterlimit:10;}
	.st5{display:none;stroke:#000000;stroke-width:2;stroke-miterlimit:10;}
	.st6{display:none;fill:#FFFFFF;}
	.st7{stroke:#020202;stroke-miterlimit:10;}
	.st8{fill:#28363F;}
	.st9{fill:#D77F4E;}
</style>
<g class="st0">
	<rect x="-1.5" y="-12.4" class="st1" width="147" height="48"/>
	<path class="st2" d="M144.5-11.4v46h-145v-46H144.5 M146.5-13.4h-149v50h149V-13.4L146.5-13.4z"/>
</g>
<polygon class="st3" points="301,253 200,232 200,184.6 301,193 "/>
<line class="st4" x1="128.8" y1="-11.7" x2="128.8" y2="34.9"/>
<path class="st4" d="M162.8-4.2"/>
<rect x="128.8" y="-11.7" class="st5" width="15.7" height="46.6"/>
<text transform="matrix(-5.153894e-003 1.0066 -1 -5.120000e-003 130.0452 -13.4035)" class="st6" style="font-family:'CenturyGothic'; font-size:16.8974px;">Board</text>
<rect x="129.6" y="29.6" class="st6" width="14.9" height="5.3"/>
<rect x="129.6" y="15.4" class="st6" width="14.9" height="5.5"/>
<rect x="129.6" y="2.9" class="st6" width="14.9" height="5.5"/>
<rect x="129.6" y="-11.7" class="st6" width="14.9" height="5.3"/>
<path class="st7" d="M91.6,37.2"/>
<path class="st7" d="M92,36.5"/>
<g>
	<path class="st8" d="M0,29V1.2h0.6l18.1,21.3V1.2h2.7V29h-0.6L2.8,8v21H0z"/>
	<path class="st8" d="M37,7.9c3.1,0,5.7,1.1,7.7,3.4c1.8,2.1,2.8,4.6,2.8,7.4c0,2.9-1,5.4-2.9,7.5c-2,2.1-4.5,3.2-7.5,3.2
		c-3.1,0-5.6-1.1-7.5-3.2c-2-2.1-2.9-4.6-2.9-7.5c0-2.8,0.9-5.3,2.8-7.4C31.3,9.1,33.9,7.9,37,7.9z M37,10.5c-2.1,0-4,0.8-5.5,2.4
		s-2.3,3.6-2.3,5.9c0,1.5,0.4,2.9,1.1,4.1c0.7,1.3,1.7,2.3,2.8,3c1.2,0.7,2.5,1,3.9,1c1.4,0,2.7-0.3,3.9-1c1.2-0.7,2.1-1.7,2.8-3
		c0.7-1.3,1.1-2.7,1.1-4.1c0-2.3-0.8-4.3-2.3-5.9S39.1,10.5,37,10.5z"/>
	<path class="st8" d="M54.5,0.8h2.6v7.6h4.1v2.3h-4.1V29h-2.6V10.7H51V8.4h3.5V0.8z"/>
	<path class="st9" d="M65.9,0c0.6,0,1.1,0.2,1.5,0.6C67.8,1.1,68,1.6,68,2.2c0,0.6-0.2,1.1-0.6,1.5s-0.9,0.6-1.5,0.6
		c-0.6,0-1.1-0.2-1.5-0.6s-0.6-0.9-0.6-1.5c0-0.6,0.2-1.1,0.6-1.5C64.8,0.2,65.3,0,65.9,0z M64.6,8.4h2.6V29h-2.6V8.4z"/>
	<path class="st9" d="M92.1,12.7L90,14c-1.8-2.4-4.2-3.6-7.2-3.6c-2.4,0-4.5,0.8-6.1,2.4c-1.6,1.6-2.4,3.6-2.4,5.9
		c0,1.5,0.4,2.9,1.1,4.2s1.8,2.3,3.1,3.1s2.7,1.1,4.4,1.1c2.9,0,5.4-1.2,7.2-3.6l2,1.4c-1,1.5-2.2,2.6-3.9,3.4
		c-1.6,0.8-3.5,1.2-5.5,1.2c-3.2,0-5.8-1-7.9-3.1s-3.1-4.6-3.1-7.5c0-2,0.5-3.8,1.5-5.5c1-1.7,2.3-3,4-4c1.7-1,3.6-1.4,5.7-1.4
		c1.3,0,2.6,0.2,3.8,0.6c1.2,0.4,2.3,1,3.1,1.6C90.7,10.8,91.5,11.7,92.1,12.7z"/>
	<path class="st8" d="M113.9,22.1l2.2,1.2c-0.7,1.4-1.5,2.6-2.5,3.5c-0.9,0.9-2,1.5-3.2,2c-1.2,0.5-2.5,0.7-4,0.7
		c-3.3,0-5.8-1.1-7.7-3.3C97,24,96,21.5,96,18.8c0-2.6,0.8-4.9,2.3-7c2-2.6,4.6-3.9,8-3.9c3.4,0,6.2,1.3,8.2,4
		c1.5,1.9,2.2,4.2,2.2,7H98.7c0,2.4,0.8,4.3,2.2,5.9s3.2,2.3,5.3,2.3c1,0,2-0.2,3-0.5c1-0.4,1.8-0.8,2.5-1.4
		C112.4,24.5,113.1,23.5,113.9,22.1z M113.9,16.6c-0.3-1.4-0.8-2.5-1.5-3.4c-0.7-0.8-1.5-1.5-2.6-2c-1.1-0.5-2.2-0.8-3.4-0.8
		c-2,0-3.7,0.6-5.1,1.9c-1,0.9-1.8,2.4-2.3,4.2H113.9z"/>
</g>
</svg>
